<?xml version="1.0" standalone="no"?><!DOCTYPE svg PUBLIC "-//W3C//DTD SVG 1.1//EN" "http://www.w3.org/Graphics/SVG/1.1/DTD/svg11.dtd"><svg t="1616482135214" class="icon" viewBox="0 0 1024 1024" version="1.1" xmlns="http://www.w3.org/2000/svg" p-id="6485" xmlns:xlink="http://www.w3.org/1999/xlink" width="200" height="200"><defs><style type="text/css"></style></defs><path d="M776 704l-254.08-202.88V166.72a48 48 0 0 0-48-48A400 400 0 0 0 80 523.2 400 400 0 0 0 474.56 928a388.8 388.8 0 0 0 312-157.12 48 48 0 0 0-3.52-61.76z" p-id="6486"></path><path d="M642.56 96a48.32 48.32 0 0 0-57.28 32 41.92 41.92 0 0 0-2.24 14.08c0 14.72-7.68 182.72-12.48 294.08a47.68 47.68 0 0 0 18.56 40l124.16 96c110.4 86.08 138.56 107.84 156.8 107.84a40.96 40.96 0 0 0 18.24-6.08 46.4 46.4 0 0 0 23.04-24.32 408 408 0 0 0 32-160A401.92 401.92 0 0 0 642.56 96z" p-id="6487"></path></svg>