<?xml version="1.0" standalone="no"?><!DOCTYPE svg PUBLIC "-//W3C//DTD SVG 1.1//EN" "http://www.w3.org/Graphics/SVG/1.1/DTD/svg11.dtd"><svg t="1616482206531" class="icon" viewBox="0 0 1024 1024" version="1.1" xmlns="http://www.w3.org/2000/svg" p-id="6620" xmlns:xlink="http://www.w3.org/1999/xlink" width="200" height="200"><defs><style type="text/css"></style></defs><path d="M684.48 295.68A51.52 51.52 0 1 0 736 347.2a51.52 51.52 0 0 0-51.52-51.52z" p-id="6621"></path><path d="M928 155.84v-3.52a60.16 60.16 0 0 0-48-47.68L576 96a60.48 60.48 0 0 0-49.92 17.28L112.64 527.68A59.52 59.52 0 0 0 96 569.92a58.56 58.56 0 0 0 17.6 42.56l297.92 297.92a59.84 59.84 0 0 0 84.8 0l413.12-414.08A60.16 60.16 0 0 0 928 448z m-244.48 320a128 128 0 1 1 128-128 128 128 0 0 1-127.04 127.36z" p-id="6622"></path></svg>